#!OML:ASF E:\inclinewalkrobotboard\Project 1\Capture day 1\Session 1\subject1.ASF
:FULLY-SPECIFIED
:DEGREES
238
root 8.82312 16.4873 3.09812 -175.399 5.69322 177.619
lowerback 4.07493 -3.95936 -7.20523
upperback 4.6571 -5.129 5.47156
thorax 3.79499 -2.79463 9.8878
lowerneck -7.07406 0.123126 -1.54249
upperneck 29.0699 4.04882 -3.92553
head 10.5309 2.09392 -0.536983
rclavicle 1.19271e-015 -4.13472e-014
rhumerus -56.2695 -19.2219 -59.1114
rradius 37.009
rwrist 10.847
rhand -16.2816 -40.4664
rfingers 7.12502
rthumb 9.92852 -70.2123
lclavicle 1.19271e-015 -4.13472e-014
lhumerus -11.6079 -20.4627 92.9428
lradius 54.1497
lwrist -13.7733
lhand -34.5836 -27.8512
lfingers 7.12502
lthumb -7.7429 1.98702
rfemur -67.6276 5.22495 6.82119
rtibia 39.7135
rfoot 7.48528 -6.77372
rtoes -18.3036
lfemur -2.42862 -5.53025 -29.115
ltibia 26.317
lfoot -18.4127 6.00344
ltoes -53.7814
239
root 8.86674 16.4743 2.94134 -174.785 6.1047 177.762
lowerback 3.28511 -3.72728 -6.83315
upperback 4.44889 -4.81063 5.3916
thorax 3.89533 -2.62859 9.54169
lowerneck -7.59145 -0.0788535 -1.41932
upperneck 29.4728 3.87624 -4.13869
head 10.7899 1.99942 -0.644829
rclavicle -1.07344e-014 -5.08889e-014
rhumerus -54.9164 -18.7875 -60.3534
rradius 38.2269
rwrist 10.4123
rhand -16.3646 -40.3848
rfingers 7.12502
rthumb 9.84839 -70.1345
lclavicle -1.07344e-014 -5.08889e-014
lhumerus -12.6081 -20.4928 94.1389
lradius 53.3482
lwrist -14.9189
lhand -34.7634 -27.6929
lfingers 7.12502
lthumb -7.91646 2.13882
rfemur -66.0985 5.54502 7.21725
rtibia 40.4241
rfoot 8.29285 -6.8671
rtoes -16.5502
lfemur -2.66148 -5.26407 -28.7231
ltibia 26.6282
lfoot -17.7842 6.01499
ltoes -54.5065
240
root 8.92939 16.4714 2.78231 -174.287 5.78401 177.85
lowerback 2.75244 -3.70994 -6.68673
upperback 4.18406 -4.79291 5.38177
thorax 3.89247 -2.61639 9.41696
lowerneck -7.64854 -0.204702 -1.53211
upperneck 29.5798 3.70139 -3.99479
head 10.834 1.92779 -0.591238
rclavicle 1.78906e-014 -6.99722e-014
rhumerus -53.6589 -18.2217 -61.5599
rradius 39.4197
rwrist 10.1012
rhand -16.7018 -40.0189
rfingers 7.12502
rthumb 9.52309 -69.7837
lclavicle 1.78906e-014 -6.99722e-014
lhumerus -13.7363 -20.5603 95.2466
lradius 52.5736
lwrist -14.9202
lhand -34.9288 -27.0557
lfingers 7.12502
lthumb -8.07603 2.77003
rfemur -64.0011 5.51866 7.29978
rtibia 40.9197
rfoot 8.45184 -7.12908
rtoes -17.4522
lfemur -2.8631 -5.31998 -28.2371
ltibia 27.1621
lfoot -17.1542 5.54049
ltoes -54.7086
241
root 8.98401 16.4712 2.60467 -173.879 5.47576 177.831
lowerback 2.16582 -3.67686 -6.46431
upperback 3.91075 -4.75232 5.32288
thorax 3.89462 -2.58907 9.19224
lowerneck -7.46841 -0.28543 -1.76549
upperneck 29.6733 3.59889 -3.73696
head 10.8241 1.90179 -0.468404
rclavicle 1.23246e-014 1.90833e-014
rhumerus -52.7441 -17.4811 -62.708
rradius 40.8608
rwrist 9.59843
rhand -17.1388 -40.1504
rfingers 7.12502
rthumb 9.10138 -69.9341
lclavicle 1.23246e-014 1.90833e-014
lhumerus -15.1028 -20.5412 96.4009
lradius 51.8123
lwrist -14.4218
lhand -35.0355 -26.6055
lfingers 7.12502
lthumb -8.17901 3.21618
rfemur -61.523 5.45875 7.24706
rtibia 41.1142
rfoot 8.84048 -7.29394
rtoes -18.3998
lfemur -2.90508 -5.48242 -28.0082
ltibia 27.5925
lfoot -15.776 5.65459
ltoes -54.6248
242
root 9.0435 16.4686 2.4202 -173.456 4.90863 177.559
lowerback 1.59002 -3.69937 -6.42842
upperback 3.57649 -4.79393 5.2023
thorax 3.8566 -2.60819 9.0081
lowerneck -7.27533 -0.362338 -1.90955
upperneck 29.7781 3.52442 -3.58113
head 10.8201 1.89019 -0.39404
rclavicle -1.03368e-014 -2.54444e-014
rhumerus -52.1447 -16.7749 -63.7419
rradius 42.4144
rwrist 8.77851
rhand -17.4725 -40.7023
rfingers 7.12502
rthumb 8.77937 -70.4997
lclavicle -1.03368e-014 -2.54444e-014
lhumerus -16.493 -20.3311 97.5254
lradius 50.7893
lwrist -13.8947
lhand -34.8558 -26.1294
lfingers 7.12502
lthumb -8.00559 3.699
rfemur -58.7603 5.26449 6.80323
rtibia 40.7709
rfoot 9.56882 -7.68919
rtoes -19.8302
lfemur -3.02006 -5.89683 -28.0713
ltibia 28.0945
lfoot -15.2102 5.10097
ltoes -54.5741
243
root 9.11013 16.4609 2.2189 -173.102 4.63068 177.414
lowerback 0.932938 -3.61744 -6.28324
upperback 3.34526 -4.68367 5.06598
thorax 3.93154 -2.55142 8.74427
lowerneck -7.12019 -0.435996 -2.05973
upperneck 29.7096 3.37059 -3.32159
head 10.7537 1.84231 -0.292615
rclavicle -8.74653e-015 -5.40694e-014
rhumerus -51.5551 -16.3647 -64.6733
rradius 43.7166
rwrist 7.97178
rhand -17.8712 -41.1858
rfingers 7.12502
rthumb 8.39465 -70.999
lclavicle -8.74653e-015 -5.40694e-014
lhumerus -17.6494 -19.9024 98.4483
lradius 49.3879
lwrist -13.5204
lhand -34.6662 -25.5052
lfingers 7.12502
lthumb -7.82261 4.33007
rfemur -55.7757 5.54092 6.54759
rtibia 39.863
rfoot 10.89 -7.71158
rtoes -20.4513
lfemur -3.04684 -5.87562 -27.9817
ltibia 29.0382
lfoot -15.294 4.77967
ltoes -56.0677
244
root 9.18447 16.4456 2.02458 -172.374 4.26344 177.568
lowerback 0.104468 -3.54397 -5.86489
upperback 3.03331 -4.58038 5.03945
thorax 4.00747 -2.48665 8.43541
lowerneck -6.97298 -0.472495 -2.376
upperneck 29.4267 3.17211 -2.8304
head 10.6014 1.76984 -0.0881217
rclavicle -3.49861e-014 3.18055e-015
rhumerus -50.8387 -16.1944 -65.5146
rradius 44.7157
rwrist 7.27091
rhand -18.2139 -41.6771
rfingers 7.12502
rthumb 8.0639 -71.5032
lclavicle -3.49861e-014 3.18055e-015
lhumerus -18.6557 -19.3626 99.1946
lradius 47.7488
lwrist -13.3275
lhand -34.609 -25.3308
lfingers 7.12502
lthumb -7.76744 4.50655
rfemur -53.0765 5.85392 6.60394
rtibia 38.5716
rfoot 12.7529 -6.93987
rtoes -23.1137
lfemur -3.72353 -6.06158 -27.4376
ltibia 30.2253
lfoot -15.2718 4.20303
ltoes -56.1144
